<svg xmlns="http://www.w3.org/2000/svg" width="1200" height="630" viewBox="0 0 1200 630">
  <defs>
    <linearGradient id="background" x1="80" y1="40" x2="1120" y2="590" gradientUnits="userSpaceOnUse">
      <stop stop-color="#0f172a"/>
      <stop offset="0.55" stop-color="#064e3b"/>
      <stop offset="1" stop-color="#047857"/>
    </linearGradient>
    <pattern id="grid" width="48" height="48" patternUnits="userSpaceOnUse">
      <path d="M48 0H0V48" fill="none" stroke="#fff" stroke-opacity=".055"/>
    </pattern>
  </defs>
  <rect width="1200" height="630" rx="32" fill="url(#background)"/>
  <rect width="1200" height="630" rx="32" fill="url(#grid)"/>
  <circle cx="1030" cy="120" r="240" fill="#10b981" fill-opacity=".12"/>
  <circle cx="1090" cy="570" r="270" fill="#14b8a6" fill-opacity=".1"/>
  <g transform="translate(76 74) scale(1.42)">
    <rect width="96" height="96" rx="22" fill="#059669"/>
    <path d="M18 39 48 20l30 19-5 8-25-16-25 16-5-8Z" fill="#fef3c7"/>
    <path d="M26 47c8-3 15-2 22 3v27c-7-5-14-6-22-3V47Zm44 0c-8-3-15-2-22 3v27c7-5 14-6 22-3V47Z" fill="#fff"/>
    <path d="M48 50v27" stroke="#a7f3d0" stroke-width="3"/>
  </g>
  <text x="76" y="278" fill="#6ee7b7" font-family="Arial, Helvetica, sans-serif" font-size="26" font-weight="700" letter-spacing="4">PORTAL PENDIDIKAN DIGITAL</text>
  <text x="76" y="357" fill="#fff" font-family="Arial, Helvetica, sans-serif" font-size="68" font-weight="800">SMK PLUS</text>
  <text x="76" y="430" fill="#fff" font-family="Arial, Helvetica, sans-serif" font-size="68" font-weight="800">AT THAHIRIN</text>
  <text x="80" y="485" fill="#d1fae5" font-family="Arial, Helvetica, sans-serif" font-size="27">Unggul, Berkarakter &amp; Siap Kerja</text>
  <rect x="76" y="535" width="490" height="3" rx="2" fill="#34d399"/>
  <text x="76" y="578" fill="#cbd5e1" font-family="Arial, Helvetica, sans-serif" font-size="23">MPLB • CBT • Absensi Digital • Megamendung, Bogor</text>
</svg>
